<svg 
 xmlns="http://www.w3.org/2000/svg"
 xmlns:xlink="http://www.w3.org/1999/xlink"
 width="32px" height="32px">
<path fill-rule="evenodd"  fill="rgb(149, 225, 211)"
 d="M31.065,25.889 L16.594,31.877 C16.412,31.956 16.211,31.1000 15.1000,31.1000 C15.789,31.1000 15.588,31.956 15.406,31.877 L0.935,25.889 C0.387,25.666 -0.000,25.128 -0.000,24.500 L-0.000,1.500 C-0.000,0.671 0.672,0.000 1.500,0.000 C1.703,0.000 1.897,0.041 2.073,0.114 L2.074,0.114 L2.076,0.115 C2.080,0.116 2.085,0.119 2.089,0.120 L15.1000,5.876 L29.911,0.120 C29.915,0.119 29.920,0.116 29.924,0.115 L29.927,0.114 L29.927,0.114 C30.103,0.041 30.297,0.000 30.500,0.000 C31.328,0.000 31.1000,0.671 31.1000,1.500 L31.1000,24.500 C31.1000,25.128 31.613,25.666 31.065,25.889 ZM14.500,8.503 L2.1000,3.744 L2.1000,23.497 L14.500,28.256 L14.500,8.503 ZM29.000,3.744 L17.500,8.503 L17.500,28.256 L29.000,23.497 L29.000,3.744 ZM19.879,10.634 L25.379,8.134 L25.379,8.134 C25.568,8.048 25.778,7.1000 25.1000,7.1000 C26.828,7.1000 27.500,8.671 27.500,9.500 C27.500,10.107 27.139,10.629 26.621,10.865 L26.621,10.865 L21.121,13.365 L21.121,13.365 C20.931,13.452 20.721,13.500 20.500,13.500 C19.672,13.500 18.1000,12.828 18.1000,11.1000 C18.1000,11.393 19.361,10.870 19.879,10.634 ZM19.879,16.134 L19.879,16.134 L25.379,13.634 L25.379,13.634 C25.568,13.548 25.778,13.500 25.1000,13.500 C26.828,13.500 27.500,14.171 27.500,14.999 C27.500,15.607 27.139,16.129 26.621,16.365 L21.121,18.865 L21.121,18.865 C20.931,18.951 20.721,18.1000 20.500,18.1000 C19.672,18.1000 18.1000,18.328 18.1000,17.500 C18.1000,16.893 19.361,16.370 19.879,16.134 ZM19.879,21.634 L19.879,21.634 L25.379,19.134 L25.379,19.134 C25.568,19.048 25.778,18.1000 25.1000,18.1000 C26.828,18.1000 27.500,19.671 27.500,20.500 C27.500,21.107 27.139,21.629 26.621,21.865 L26.621,21.865 L21.121,24.365 L21.121,24.365 C20.931,24.452 20.721,24.500 20.500,24.500 C19.672,24.500 18.1000,23.828 18.1000,22.1000 C18.1000,22.393 19.361,21.870 19.879,21.634 ZM6.000,7.1000 C6.221,7.1000 6.431,8.048 6.621,8.134 L6.621,8.134 L12.121,10.634 L12.121,10.634 C12.639,10.870 13.000,11.393 13.000,11.1000 C13.000,12.828 12.328,13.500 11.500,13.500 C11.278,13.500 11.068,13.452 10.879,13.365 L10.879,13.365 L5.379,10.865 L5.379,10.865 C4.861,10.629 4.500,10.107 4.500,9.500 C4.500,8.671 5.172,7.1000 6.000,7.1000 ZM6.000,13.500 C6.221,13.500 6.431,13.548 6.621,13.634 L6.621,13.634 L12.121,16.134 L12.121,16.134 C12.639,16.370 13.000,16.893 13.000,17.500 C13.000,18.328 12.328,18.1000 11.500,18.1000 C11.278,18.1000 11.068,18.951 10.879,18.865 L10.879,18.865 L5.379,16.365 L5.379,16.365 C4.861,16.129 4.500,15.607 4.500,14.999 C4.500,14.171 5.172,13.500 6.000,13.500 ZM6.000,18.1000 C6.221,18.1000 6.431,19.048 6.621,19.134 L6.621,19.134 L12.121,21.634 L12.121,21.634 C12.639,21.870 13.000,22.393 13.000,22.1000 C13.000,23.828 12.328,24.500 11.500,24.500 C11.278,24.500 11.068,24.452 10.879,24.365 L10.879,24.365 L5.379,21.865 L5.379,21.865 C4.861,21.629 4.500,21.107 4.500,20.500 C4.500,19.671 5.172,18.1000 6.000,18.1000 Z"/>
</svg>