<svg 
 xmlns="http://www.w3.org/2000/svg"
 xmlns:xlink="http://www.w3.org/1999/xlink"
 width="32px" height="28px">
<path fill-rule="evenodd"  fill="rgb(149, 225, 211)"
 d="M30.000,22.1000 L22.500,22.1000 L20.500,22.1000 L20.500,25.499 L22.500,27.500 L22.500,27.1000 L9.500,27.1000 L9.500,27.500 L11.500,25.499 L11.500,22.1000 L9.500,22.1000 L2.000,22.1000 C1.172,22.1000 0.500,22.328 0.500,21.499 L0.500,1.500 C0.500,0.671 1.172,-0.000 2.000,-0.000 L30.000,-0.000 C30.828,-0.000 31.500,0.671 31.500,1.500 L31.500,21.499 C31.500,22.328 30.828,22.1000 30.000,22.1000 ZM29.500,1.1000 L2.500,1.1000 L2.500,18.1000 L29.500,18.1000 L29.500,1.1000 ZM12.1000,8.1000 C13.414,8.1000 13.789,9.168 14.061,9.439 L14.061,9.439 L14.1000,10.378 L17.939,7.439 L17.939,7.439 C18.211,7.167 18.586,6.1000 18.1000,6.1000 C19.828,6.1000 20.500,7.671 20.500,8.500 C20.500,8.914 20.332,9.289 20.061,9.561 L20.061,9.561 L16.061,13.561 L16.061,13.561 C15.789,13.832 15.414,13.1000 14.1000,13.1000 C14.586,13.1000 14.211,13.832 13.939,13.561 L13.939,13.561 L11.939,11.560 L11.939,11.560 C11.668,11.289 11.500,10.914 11.500,10.500 C11.500,9.671 12.172,8.1000 12.1000,8.1000 Z"/>
</svg>